<?xml version="1.0" encoding="utf-8"?>
<!-- Generator: Adobe Illustrator 17.0.0, SVG Export Plug-In . SVG Version: 6.00 Build 0)  -->
<!DOCTYPE svg PUBLIC "-//W3C//DTD SVG 1.1//EN" "http://www.w3.org/Graphics/SVG/1.1/DTD/svg11.dtd">
<svg version="1.1" id="Layer_1" xmlns="http://www.w3.org/2000/svg" xmlns:xlink="http://www.w3.org/1999/xlink" x="0px" y="0px"
	 width="247.705px" height="247.705px" viewBox="0 0 247.705 247.705" enable-background="new 0 0 247.705 247.705"
	 xml:space="preserve">
<g>
	<path fill="#28C7D2" d="M114.089,27.413c1.532,1.799,3.062,3.598,4.936,5.796c-0.903,0.128-1.528,0.092-2.041,0.316
		c-1.165,0.513-2.274,1.155-3.406,1.742c0.929,1.094,1.644,2.61,2.824,3.194c3.408,1.693,4.032,3.276,2.113,7.522
		c-0.597-0.228-1.222-0.452-1.832-0.703c-0.434-0.179-0.852-0.397-2.284-1.072c2.361,3.82,4.305,6.564,5.82,9.528
		c1.62,3.17,2.369,6.236-1.4,8.96c-1.302,0.941-1.966,3.498-1.984,5.325c-0.039,3.496,0.22,7.088,1.023,10.48
		c1.73,7.308-0.422,10.111-7.788,10.3c-6.142,0.159-12.215,1.116-17.431,4.671c0.079,0.397,0.157,0.793,0.236,1.188
		c3.235-0.52,6.46-1.214,9.72-1.514c2.773-0.255,6.102-1,8.257,0.173c2.832,1.542,5.884,4.405,6.792,7.334
		c1.226,3.956-0.422,8.235-4.205,10.804c-1.006,0.685-2.754,0.448-4.148,0.367c-3.461-0.198-6.963-1.059-10.349-0.709
		c-4.486,0.465-8.828,0.843-12.735-1.707c-7.821-5.105-8.779-12.992-2.459-19.89c2.206-2.408,4.698-4.555,7.061-6.825
		c-0.247-0.34-0.489-0.685-0.731-1.027c-1.671,0.821-3.327,1.673-5.018,2.455c-3.539,1.636-4.58,0.903-4.769-2.889
		c-0.373-7.446,4.205-11.67,9.689-15.369c1.349-0.909,2.683-1.836,4.03-3.264c-4.608,1.367-6.815-0.255-7.797-4.602
		c-1.027-4.533-0.326-7.917,3.753-10.258c3.115-1.783,6.709-2.728,9.913-3.979c-0.379-1.341-1.683-3.461-1.088-4.521
		c0.689-1.237,3.076-1.475,4.659-2.28c1.809-0.921,3.584-1.935,5.26-3.076c0.153-0.106-0.674-2.102-0.778-2.08
		c-1.962,0.46-4.02,0.831-5.772,1.76c-2.094,1.108-3.91,2.736-5.871,4.101c-0.163,0.114-0.536-0.075-1.027-0.163
		c-0.285-3.011,0.416-5.484,3.504-6.796c2.828-1.2,5.666-2.382,8.497-3.571C109.54,27.232,111.816,27.323,114.089,27.413z"/>
	<path fill="#28C7D2" d="M36.137,119.084c0.807-1.467,1.644-2.919,2.42-4.405c1.766-3.372,4.038-4.688,7.96-3.015
		c1.475,0.627,3.681-0.187,5.47-0.668c1.597-0.432,3.076-1.306,4.849-2.086c0.061,2.306,0.112,4.231,0.161,6.157
		c0.389,0.334,0.776,0.668,1.163,1.002c0.414-0.829,0.697-1.756,1.259-2.467c1.231-1.554,2.485-3.115,3.926-4.466
		c6.189-5.814,12.189-5.613,17.223,1.041c2.441,3.225,4.804,4.555,9.023,4.392c5.884-0.224,11.989,0.084,17.686,1.455
		c9.759,2.347,12.929,9.027,9.84,19.169c-3.121-1.361-6.224-2.72-9.323-4.073c-0.189,0.332-0.377,0.666-0.564,1
		c2.375,1.693,4.908,3.209,7.069,5.136c1.811,1.614,4.225,3.545,4.559,5.629c0.878,5.476,1.475,11.191,0.85,16.661
		c-0.581,5.073-5.478,6.356-9.64,3.254c-0.788-0.593-1.599-1.251-2.141-2.054c-2.437-3.606-5.236-6.476-9.972-6.912
		c-1.031-0.098-2.096-1.638-2.838-2.722c-4.068-5.947-7.827-12.12-12.171-17.853c-1.275-1.679-4.026-2.512-6.265-3.123
		c-3.665-0.998-7.499-1.365-11.203-2.241c-5.224-1.237-10.087-2.111-15.601,0.073c-7.332,2.899-9.932,1.636-13.943-3.773
		C36.001,122.492,36.068,120.789,36.137,119.084z"/>
	<path fill="#FFC700" d="M104.072,214.019c-3.541-1.391-7.045-2.891-10.637-4.142c-3.518-1.224-7.12-2.198-11.757-3.604
		c5.763-1.677,10.186-0.275,14.575,0.925c2.718,0.752,5.311,1.948,7.998,2.836c4.048,1.33,8.267-0.114,11.602-4.362
		c-1.789,0.416-2.919,0.752-4.079,0.923c-2.204,0.326-4.433,0.837-6.631,0.744c-2.805-0.122-6.625-0.495-6.47-3.895
		c0.092-2.056,2.966-4.751,5.217-5.776c4.187-1.905,8.83-2.791,13.915-4.286c-1.897,8.206-9.213,6.275-14.124,8.277
		c0.071,0.373,0.145,0.752,0.22,1.125c1.432-0.196,2.919-0.212,4.288-0.615c4.957-1.467,9.687-0.489,10.775,2.347
		c0.888,2.32-3.095,7.01-7.188,8.465c-1.145,0.403-2.296,0.805-3.443,1.206C106.914,214.133,105.494,214.074,104.072,214.019z"/>
	<path fill="#FFC700" d="M84.816,179.986c0.903,1.373,1.805,2.748,2.703,4.117c-7.261,2.96-11.991-0.935-15.881-12.719
		c-0.285,1.642-0.568,3.278-0.903,5.195c-4.896,0.676-10.223,0.634-13.813-2.964c-3.152-3.158-4.796-7.819-7.043-11.704
		c-0.287,0.536-0.911,1.713-1.524,2.858c-4.346-0.56-7.632-4.922-9.196-13.185c5.109,5.674,10.728,7.762,17.875,7.208
		c-1.033-0.984-1.732-2.064-2.716-2.504c-2.838-1.273-5.715-2.593-8.717-3.315c-3.225-0.772-4.427-2.618-4.618-6.089
		c6.069-0.57,11.034,1.589,15.915,4.614c5.588,3.463,4.747,9.298,5.222,14.723c0.383-0.031,0.766-0.059,1.151-0.09
		c0.57-1.226,0.933-2.62,1.762-3.643c1.141-1.414,2.673-3.606,3.954-3.549c1.884,0.075,4.026,1.522,5.464,2.974
		c1.654,1.673,2.439,4.185,4.018,5.959c1.373,1.542,3.166,2.968,5.061,3.732c5.016,2.023,10.164,3.74,15.32,5.382
		c1.127,0.361,2.512-0.094,3.779-0.939c-2.361-0.943-4.724-1.884-7.324-2.923c1.444-2.125,2.459-3.62,4.015-5.912
		c-1.783,0.611-2.791,0.852-3.698,1.294c-10.476,5.059-19.307-0.733-19.097-12.57c0.045-2.492,0.189-4.985,0.291-7.481
		c-0.469-0.069-0.935-0.141-1.402-0.212c-0.265,0.32-0.607,0.605-0.78,0.972c-1.07,2.184,0.308,6.169-3.785,6.106
		c-4.235-0.067-8.907-0.387-11.284-4.582c-1.99-3.514-3.064-7.548-4.549-11.348c-0.224-0.575-0.467-1.147-1.214-2.974
		c-0.721,3.41-1.169,5.529-1.614,7.619c-8.365,1.638-13.475-1.055-14.909-7.801c-0.762-3.588,0.287-4.561,4.005-4.743
		c3.058-0.149,6.191-0.605,9.098-1.526c5.582-1.77,12.273-1.061,19.984,2.706c-1.112,1.571-2.231,3.154-3.396,4.802
		c0.731,0.35,0.888,0.489,0.962,0.456c9.453-4.553,13.937-2.824,18.142,6.866c2.508,5.786,6.324,10.288,12.468,12.607
		c1.74,0.66,3.284,2.041,4.688,3.337c3.457,3.207,6.102,7.558,11.908,7.059c0.746-0.065,2.343,2.284,2.461,3.612
		c0.623,7.055-4.018,12.668-11.519,14.512c-6.271,1.54-11.37-0.703-16.054-4.659c-1.235-1.047-2.754-1.766-4.146-2.636
		C85.525,179.078,85.17,179.534,84.816,179.986z"/>
	<path fill="#28C7D2" d="M92.113,31.74c0.332,3.602,0.603,6.536,0.927,10.011c-0.196,0.128-0.953,0.799-1.836,1.167
		c-7.022,2.926-8.993,8.801-8.512,15.589c0.293,4.125-0.314,7.224-3.486,10.225c-4.097,3.873-4.682,12.297-1.988,17.5
		c0.493,0.951,0.817,1.994,1.469,3.614c-2.42-0.458-4.203-0.797-6.279-1.188c5.401,7.772,5.421,7.846,3.932,13.475
		c-4.737-2.538-9.182-2.316-13.664,0.884c-4.319,3.084-9.068,5.067-14.65,4.879c-2.447-0.081-4.641,0.157-5.474-2.616
		c-0.949-3.158-1.618-6.375,1.298-10.3c0.845,3.396,1.422,5.721,2.166,8.695c2.396-3.013,0.866-8.451,6.338-7.76
		c3.341,0.424,6.676,0.868,10.628,1.381c-2.893-3.514-6.58-3.624-9.854-3.478c-3.217,0.143-4.486-1.037-4.908-3.82
		c-0.212-1.396-0.361-2.82-0.34-4.225c0.051-4.07,1.112-8.031,5.307-9.296c3.944-1.19,6.415,1.876,8.677,4.781
		c1.424,1.832,3.231,3.368,4.867,5.038c0.334-0.291,0.668-0.581,1.004-0.87c-0.75-0.976-1.42-2.027-2.257-2.921
		c-3.396-3.634-4.488-7.833-2.923-12.546c1.159-3.484,3.406-5.666,7.403-5.979c3.716-0.289,7.746-0.483,9.424-5.289
		c-3.512-0.676-7.788,3.602-10.099-1.196c-2.357-4.896,4.064-5.649,5.344-10.032c-2.504,1.575-4.415,2.783-6.328,3.989
		c-0.222-0.187-0.444-0.377-0.662-0.564c0.813-1.065,1.402-2.622,2.481-3.123c7.56-3.514,12.926-9.903,19.552-14.619
		C90.225,32.742,90.86,32.453,92.113,31.74z"/>
	<path fill="#FFC700" d="M41.681,165.766c4.484,1.891,7.524,4.331,10.213,7.903c3.842,5.093,10.176,5.875,16.2,6.069
		c2.139,0.069,3.201,0.418,4.254,2.408c2.873,5.44,7.367,7.018,13.664,5.983c3.076-0.507,6.407-0.568,9.447,0.041
		c8.231,1.654,16.154,2.777,22.09-5.535c0.32,0.214,0.642,0.432,0.964,0.644c-0.124,1.31,0.167,2.889-0.473,3.852
		c-0.888,1.336-2.31,2.706-3.789,3.199c-7.626,2.557-15.251,5.222-23.052,7.102c-7.921,1.911-14.897-1.599-19.421-8.345
		c-0.931-1.387-2.771-2.671-4.394-3.005c-10.987-2.247-20.081-6.963-24.865-17.796C42.239,167.659,42.078,166.98,41.681,165.766z"/>
	<path fill="#FFC700" d="M56.952,186.85c0.418-0.09,0.558-0.149,0.695-0.143c6.434,0.42,11.452,2.816,15.624,8.235
		c2.335,3.029,6.998,4.268,10.555,6.273C75.848,204.201,64.376,198.187,56.952,186.85z"/>
	<path fill="#28C7D2" d="M64.893,57.051c0.212,1.813,0.821,3.217,0.412,4.189c-1.473,3.48-3.009,7.004-5.12,10.105
		c-0.866,1.273-3.26,1.501-4.961,2.204c-0.352-1.369-1.4-3.066-0.933-4.048c1.648-3.49,3.665-6.841,5.867-10.017
		C60.853,58.481,62.569,58.192,64.893,57.051z"/>
	<path fill="#79C143" d="M131.4,26.559c-1.583,1.756-3.162,3.512-5.097,5.655c0.9,0.155,1.526,0.134,2.031,0.375
		c1.151,0.546,2.241,1.218,3.359,1.836c-0.964,1.065-1.724,2.563-2.919,3.115c-3.451,1.597-4.117,3.162-2.318,7.458
		c0.605-0.212,1.233-0.418,1.848-0.65c0.44-0.167,0.864-0.373,2.312-1.008c-2.465,3.751-4.482,6.444-6.083,9.363
		c-1.707,3.121-2.54,6.167,1.147,8.997c1.275,0.978,1.87,3.551,1.838,5.38c-0.059,3.496-0.422,7.077-1.316,10.447
		c-1.933,7.257,0.134,10.117,7.497,10.512c6.14,0.33,12.181,1.459,17.292,5.158c-0.09,0.393-0.175,0.786-0.267,1.18
		c-3.223-0.611-6.426-1.393-9.675-1.783c-2.765-0.332-6.071-1.169-8.263-0.057c-2.868,1.463-6.002,4.24-6.99,7.141
		c-1.338,3.918,0.192,8.243,3.899,10.92c0.988,0.711,2.742,0.522,4.136,0.481c3.463-0.1,6.988-0.868,10.368-0.42
		c4.466,0.591,8.795,1.088,12.776-1.353c7.96-4.883,9.139-12.741,3.013-19.812c-2.139-2.469-4.57-4.686-6.868-7.018
		c0.253-0.336,0.505-0.67,0.758-1.008c1.65,0.868,3.28,1.766,4.949,2.593c3.492,1.732,4.553,1.029,4.847-2.756
		c0.579-7.432-3.875-11.784-9.257-15.634c-1.322-0.945-2.63-1.911-3.936-3.376c4.568,1.495,6.821-0.063,7.923-4.382
		c1.153-4.502,0.552-7.905-3.467-10.357c-3.06-1.87-6.623-2.915-9.793-4.254c0.414-1.33,1.777-3.412,1.214-4.488
		c-0.658-1.257-3.033-1.561-4.592-2.41c-1.787-0.972-3.531-2.033-5.173-3.221c-0.151-0.11,0.733-2.084,0.835-2.058
		c1.948,0.515,3.995,0.941,5.721,1.919c2.062,1.165,3.83,2.844,5.755,4.264c0.159,0.118,0.534-0.061,1.029-0.134
		c0.369-3.001-0.263-5.495-3.313-6.89c-2.795-1.279-5.596-2.54-8.398-3.808C135.951,26.506,133.678,26.535,131.4,26.559z"/>
	<path fill="#79C143" d="M206.763,120.372c-0.766-1.489-1.563-2.964-2.296-4.47c-1.671-3.419-3.903-4.798-7.87-3.235
		c-1.491,0.585-3.675-0.291-5.45-0.821c-1.585-0.477-3.04-1.391-4.79-2.223c-0.124,2.304-0.23,4.225-0.334,6.151
		c-0.395,0.322-0.797,0.648-1.19,0.968c-0.389-0.839-0.65-1.777-1.192-2.502c-1.186-1.587-2.4-3.182-3.797-4.576
		c-6.02-5.986-12.028-5.947-17.248,0.56c-2.53,3.154-4.928,4.419-9.139,4.14c-5.876-0.391-11.985-0.253-17.718,0.96
		c-9.818,2.076-13.177,8.658-10.372,18.888c3.158-1.277,6.297-2.545,9.431-3.814c0.181,0.342,0.359,0.678,0.538,1.019
		c-2.418,1.626-4.993,3.068-7.21,4.936c-1.854,1.563-4.321,3.427-4.714,5.499c-1.029,5.452-1.787,11.148-1.314,16.632
		c0.44,5.087,5.297,6.507,9.547,3.52c0.807-0.568,1.636-1.208,2.198-1.994c2.538-3.535,5.413-6.324,10.162-6.631
		c1.027-0.067,2.141-1.573,2.913-2.64c4.227-5.833,8.161-11.896,12.662-17.502c1.32-1.648,4.095-2.404,6.348-2.948
		c3.692-0.898,7.534-1.153,11.26-1.927c5.256-1.092,10.142-1.827,15.591,0.507c7.249,3.105,9.887,1.913,14.045-3.376
		C206.804,123.784,206.783,122.077,206.763,120.372z"/>
	<path fill="#FFC700" d="M136.202,213.373c3.579-1.292,7.126-2.693,10.749-3.84c3.549-1.131,7.179-2.001,11.853-3.28
		c-5.717-1.832-10.178-0.554-14.595,0.524c-2.738,0.672-5.364,1.797-8.076,2.608c-4.085,1.22-8.261-0.34-11.48-4.682
		c1.777,0.464,2.899,0.835,4.052,1.037c2.196,0.383,4.407,0.96,6.607,0.929c2.811-0.043,6.644-0.306,6.58-3.716
		c-0.039-2.056-2.834-4.832-5.057-5.918c-4.128-2.019-8.748-3.033-13.786-4.669c1.662,8.253,9.037,6.529,13.884,8.667
		c-0.079,0.377-0.167,0.75-0.247,1.123c-1.43-0.234-2.913-0.295-4.276-0.735c-4.91-1.605-9.665-0.764-10.834,2.049
		c-0.951,2.292,2.895,7.088,6.949,8.656c1.133,0.44,2.27,0.872,3.408,1.304C133.362,213.41,134.782,213.391,136.202,213.373z"/>
	<path fill="#FFC700" d="M156.399,179.891c-0.937,1.347-1.878,2.699-2.813,4.042c7.173,3.162,12.012-0.601,16.227-12.268
		c0.24,1.644,0.479,3.292,0.758,5.215c4.877,0.811,10.203,0.919,13.89-2.579c3.239-3.068,5.014-7.681,7.367-11.502
		c0.271,0.544,0.864,1.74,1.44,2.905c4.362-0.438,7.768-4.708,9.563-12.929c-5.266,5.533-10.94,7.46-18.069,6.709
		c1.061-0.953,1.785-2.015,2.783-2.426c2.871-1.192,5.786-2.435,8.805-3.07c3.247-0.685,4.498-2.498,4.79-5.963
		c-6.055-0.737-11.077,1.283-16.037,4.172c-5.682,3.304-5.006,9.164-5.629,14.571c-0.383-0.043-0.766-0.081-1.149-0.12
		c-0.536-1.247-0.86-2.65-1.656-3.696c-1.1-1.442-2.571-3.679-3.855-3.657c-1.889,0.024-4.073,1.41-5.55,2.824
		c-1.701,1.626-2.553,4.113-4.183,5.843c-1.412,1.501-3.247,2.881-5.16,3.592c-5.071,1.882-10.264,3.451-15.465,4.949
		c-1.137,0.328-2.508-0.161-3.751-1.045c2.384-0.874,4.771-1.748,7.399-2.714c-1.381-2.166-2.357-3.689-3.846-6.022
		c1.764,0.662,2.761,0.929,3.657,1.391c10.331,5.354,19.322-0.192,19.444-12.028c0.029-2.494-0.053-4.987-0.084-7.483
		c0.469-0.059,0.941-0.12,1.41-0.177c0.255,0.33,0.587,0.621,0.752,0.994c1.008,2.21-0.479,6.155,3.614,6.21
		c4.236,0.049,8.913-0.141,11.409-4.272c2.088-3.453,3.272-7.454,4.865-11.215c0.238-0.566,0.499-1.131,1.298-2.938
		c0.625,3.429,1.015,5.56,1.402,7.664c8.314,1.87,13.497-0.674,15.119-7.383c0.862-3.561-0.157-4.566-3.871-4.851
		c-3.052-0.234-6.171-0.776-9.05-1.781c-5.531-1.923-12.24-1.402-20.051,2.145c1.061,1.605,2.141,3.217,3.26,4.898
		c-0.74,0.328-0.9,0.467-0.976,0.428c-9.321-4.814-13.851-3.209-18.325,6.358c-2.667,5.713-6.609,10.105-12.812,12.256
		c-1.754,0.609-3.339,1.946-4.779,3.203c-3.547,3.109-6.314,7.381-12.099,6.721c-0.744-0.086-2.406,2.217-2.563,3.541
		c-0.819,7.033,3.663,12.776,11.105,14.829c6.228,1.715,11.39-0.387,16.178-4.211c1.267-1.013,2.807-1.687,4.219-2.516
		C155.719,178.964,156.059,179.428,156.399,179.891z"/>
	<path fill="#79C143" d="M153.248,31.5c-0.432,3.592-0.784,6.515-1.204,9.983c0.189,0.13,0.929,0.823,1.805,1.216
		c6.937,3.121,8.742,9.05,8.07,15.819c-0.403,4.117,0.114,7.232,3.201,10.317c3.987,3.989,4.337,12.423,1.499,17.551
		c-0.522,0.937-0.874,1.97-1.571,3.573c2.43-0.393,4.223-0.68,6.314-1.017c-5.621,7.619-5.643,7.691-4.307,13.36
		c4.802-2.408,9.239-2.062,13.631,1.263c4.225,3.205,8.925,5.319,14.505,5.289c2.449-0.012,4.639,0.285,5.55-2.463
		c1.035-3.129,1.793-6.326-1.015-10.333c-0.935,3.374-1.577,5.678-2.4,8.632c-2.314-3.08-0.636-8.473-6.126-7.935
		c-3.349,0.328-6.694,0.678-10.659,1.08c2.989-3.431,6.682-3.437,9.948-3.199c3.209,0.232,4.513-0.913,5.014-3.685
		c0.249-1.389,0.438-2.807,0.46-4.215c0.061-4.07-0.892-8.057-5.046-9.439c-3.91-1.3-6.47,1.697-8.805,4.539
		c-1.481,1.791-3.329,3.278-5.008,4.9c-0.33-0.297-0.656-0.597-0.978-0.896c0.774-0.958,1.475-1.986,2.335-2.858
		c3.496-3.537,4.706-7.703,3.27-12.458c-1.059-3.514-3.247-5.757-7.232-6.181c-3.706-0.395-7.731-0.699-9.274-5.552
		c3.529-0.575,7.685,3.82,10.129-0.911c2.49-4.828-3.907-5.763-5.061-10.182c2.457,1.648,4.337,2.905,6.214,4.164
		c0.226-0.181,0.454-0.365,0.676-0.546c-0.782-1.088-1.326-2.661-2.392-3.192c-7.458-3.724-12.645-10.258-19.138-15.159
		C155.106,32.555,154.476,32.245,153.248,31.5z"/>
	<path fill="#FFC700" d="M199.922,166.885c-4.539,1.758-7.644,4.115-10.433,7.607c-3.981,4.989-10.331,5.59-16.365,5.613
		c-2.139,0.012-3.209,0.332-4.317,2.29c-3.021,5.362-7.556,6.813-13.823,5.596c-3.062-0.591-6.391-0.744-9.445-0.218
		c-8.275,1.42-16.225,2.327-21.927-6.153c-0.328,0.208-0.656,0.416-0.982,0.621c0.086,1.308-0.247,2.883,0.367,3.863
		c0.85,1.361,2.233,2.761,3.7,3.3c7.548,2.765,15.094,5.643,22.844,7.744c7.862,2.133,14.935-1.184,19.645-7.797
		c0.97-1.361,2.844-2.593,4.476-2.879c11.046-1.942,20.269-6.403,25.352-17.097C199.306,168.757,199.49,168.08,199.922,166.885z"/>
	<path fill="#FFC700" d="M184.066,187.528c-0.418-0.1-0.554-0.165-0.693-0.159c-6.444,0.236-11.525,2.492-15.85,7.791
		c-2.416,2.964-7.11,4.07-10.726,5.983C164.693,204.348,176.33,198.658,184.066,187.528z"/>
	<path fill="#79C143" d="M179.751,57.56c-0.265,1.805-0.915,3.192-0.532,4.174c1.375,3.518,2.811,7.086,4.839,10.245
		c0.829,1.294,3.217,1.589,4.894,2.339c0.393-1.359,1.485-3.025,1.049-4.022c-1.55-3.537-3.476-6.939-5.586-10.178
		C183.748,59.103,182.041,58.766,179.751,57.56z"/>
</g>
<circle fill="none" cx="115.31" cy="117.331" r="98.82"/>
<text transform="matrix(0.7561 0.6544 -0.6544 0.7561 176.739 39.7862)"><tspan x="0" y="0" fill="#79C143" font-family="'PTSans-Bold'" font-size="14.95">B</tspan><tspan x="8.613" y="-0.014" fill="#79C143" font-family="'PTSans-Bold'" font-size="14.95" rotate="5.066">R</tspan><tspan x="17.343" y="0.749" fill="#79C143" font-family="'PTSans-Bold'" font-size="14.95" rotate="10.197">A</tspan><tspan x="26.016" y="2.279" fill="#79C143" font-family="'PTSans-Bold'" font-size="14.95" rotate="15.558">N</tspan><tspan x="35.247" y="4.84" fill="#79C143" font-family="'PTSans-Bold'" font-size="14.95" rotate="21.08">D</tspan><tspan x="44.061" y="8.33" fill="#79C143" font-family="'PTSans-Bold'" font-size="14.95" rotate="25.005">I</tspan><tspan x="47.814" y="9.969" fill="#79C143" font-family="'PTSans-Bold'" font-size="14.95" rotate="28.974">N</tspan><tspan x="56.204" y="14.622" fill="#79C143" font-family="'PTSans-Bold'" font-size="14.95" rotate="34.295">G</tspan></text>
<circle fill="none" cx="131.379" cy="117.331" r="98.82"/>
<text transform="matrix(0.2892 -0.9573 0.9573 0.2892 35.4102 93.2685)"><tspan x="0" y="0" fill="#28C7D2" font-family="'PTSans-Bold'" font-size="14.95">D</tspan><tspan x="9.517" y="0.087" fill="#28C7D2" font-family="'PTSans-Bold'" font-size="14.95" rotate="3.948">I</tspan><tspan x="13.604" y="0.283" fill="#28C7D2" font-family="'PTSans-Bold'" font-size="14.95" rotate="7.74">G</tspan><tspan x="22.42" y="1.556" fill="#28C7D2" font-family="'PTSans-Bold'" font-size="14.95" rotate="11.528">I</tspan><tspan x="26.449" y="2.304" fill="#28C7D2" font-family="'PTSans-Bold'" font-size="14.95" rotate="15.156">T</tspan><tspan x="34.45" y="4.45" fill="#28C7D2" font-family="'PTSans-Bold'" font-size="14.95" rotate="20.146">A</tspan><tspan x="42.751" y="7.516" fill="#28C7D2" font-family="'PTSans-Bold'" font-size="14.95" rotate="24.892">L</tspan></text>
<circle fill="none" cx="121.379" cy="122.331" r="98.82"/>
<text transform="matrix(-0.9752 0.2215 -0.2215 -0.9752 147.2283 217.8029)"><tspan x="0" y="0" fill="#FFC700" font-family="'PTSans-Bold'" font-size="14.95">C</tspan><tspan x="8.124" y="-0.049" fill="#FFC700" font-family="'PTSans-Bold'" font-size="14.95" rotate="5.187">O</tspan><tspan x="17.849" y="0.826" fill="#FFC700" font-family="'PTSans-Bold'" font-size="14.95" rotate="10.824">N</tspan><tspan x="27.267" y="2.647" fill="#FFC700" font-family="'PTSans-Bold'" font-size="14.95" rotate="16.036">T</tspan><tspan x="35.239" y="4.944" fill="#FFC700" font-family="'PTSans-Bold'" font-size="14.95" rotate="20.672">E</tspan><tspan x="42.359" y="7.574" fill="#FFC700" font-family="'PTSans-Bold'" font-size="14.95" rotate="25.666">N</tspan><tspan x="50.969" y="11.732" fill="#FFC700" font-family="'PTSans-Bold'" font-size="14.95" rotate="30.812">T</tspan></text>
</svg>
